<?xml version="1.0" encoding="UTF-8" standalone="no"?><!DOCTYPE svg PUBLIC "-//W3C//DTD SVG 1.1//EN" "http://www.w3.org/Graphics/SVG/1.1/DTD/svg11.dtd"><svg width="100%" height="100%" viewBox="0 0 500 500" version="1.1" xmlns="http://www.w3.org/2000/svg" xmlns:xlink="http://www.w3.org/1999/xlink" xml:space="preserve" xmlns:serif="http://www.serif.com/" style="fill-rule:evenodd;clip-rule:evenodd;stroke-linejoin:round;stroke-miterlimit:2;"><g><path d="M251.383,319.04l-99.965,99.246c-7.06,7.061 -4.707,12.815 5.296,12.815l167.83,-0c9.936,-0 23.928,-5.754 30.989,-12.815l12.16,-12.03l-116.31,-87.216Z" style="fill:#263238;fill-rule:nonzero;"/><path d="M156.583,177.036c-10.003,0 -24.059,-5.688 -31.186,-12.552l-31.251,-30.14c-7.125,-6.93 -4.838,-12.618 5.1,-12.618l167.829,-0c10.003,-0 23.994,5.688 31.186,12.618l31.186,30.14c7.191,6.864 4.904,12.552 -5.1,12.552l-167.764,0Z" style="fill:#263238;fill-rule:nonzero;"/><path d="M80.548,101c-10.003,0 -24.124,-5.622 -31.382,-12.421l-7.649,-7.257c-7.258,-6.8 -5.034,-12.423 4.903,-12.423l167.828,0c10.003,0 24.125,5.623 31.383,12.423l7.648,7.257c7.258,6.799 5.035,12.421 -4.968,12.421l-167.763,0Z" style="fill:#263238;fill-rule:nonzero;"/><path d="M368.282,405.602l-193.588,-192.149c-7.126,-7.062 -4.773,-12.814 5.23,-12.814l167.828,-0c9.938,-0 23.93,5.752 30.99,12.814l78.717,77.997c7.061,6.996 7.061,18.503 -0,25.563l-89.177,88.589Z" style="fill:#263238;fill-rule:nonzero;"/></g></svg>