<?xml version="1.0" encoding="UTF-8" standalone="no"?><!DOCTYPE svg PUBLIC "-//W3C//DTD SVG 1.1//EN" "http://www.w3.org/Graphics/SVG/1.1/DTD/svg11.dtd"><svg width="100%" height="100%" viewBox="0 0 800 266" version="1.1" xmlns="http://www.w3.org/2000/svg" xmlns:xlink="http://www.w3.org/1999/xlink" xml:space="preserve" xmlns:serif="http://www.serif.com/" style="fill-rule:evenodd;clip-rule:evenodd;stroke-linejoin:round;stroke-miterlimit:2;"><g id="logo"><g id="logo1" serif:id="logo"><path d="M727.714,80.839c-4.592,-0 -8.01,-0.988 -10.253,-2.964c-2.243,-1.976 -3.365,-4.887 -3.365,-8.732c0,-3.952 1.122,-6.916 3.365,-8.891c2.243,-1.976 5.661,-2.964 10.253,-2.964c4.593,-0 8.011,0.988 10.254,2.964c2.243,1.975 3.364,4.939 3.364,8.891c0,3.845 -1.121,6.756 -3.364,8.732c-2.243,1.976 -5.661,2.964 -10.254,2.964Zm10.895,11.535l-0,80.106l-21.949,0l-0,-80.106l21.949,0Z" style="fill:#263238;fill-rule:nonzero;"/><path d="M646.487,174.082c-6.622,0 -12.524,-1.655 -17.704,-4.966c-5.18,-3.311 -9.239,-8.064 -12.176,-14.259c-2.937,-6.195 -4.406,-13.618 -4.406,-22.27c0,-8.865 1.549,-16.421 4.646,-22.67c3.098,-6.248 7.29,-11.001 12.577,-14.259c5.287,-3.257 11.242,-4.886 17.864,-4.886c7.049,-0 12.87,2.029 17.463,6.088c4.593,4.059 7.583,9.292 8.972,15.701l-2.083,2.563l0,-57.836l21.949,-0l0,115.192l-19.706,0l-1.442,-24.352l2.564,1.282c-0.641,5.02 -2.297,9.372 -4.967,13.057c-2.67,3.685 -6.035,6.542 -10.093,8.571c-4.059,2.03 -8.545,3.044 -13.458,3.044Zm6.408,-16.822c3.845,0 7.156,-0.988 9.933,-2.964c2.777,-1.976 4.94,-4.886 6.489,-8.731c1.549,-3.845 2.323,-8.438 2.323,-13.779c0,-5.126 -0.748,-9.479 -2.243,-13.057c-1.495,-3.578 -3.631,-6.328 -6.408,-8.251c-2.777,-1.922 -6.035,-2.884 -9.773,-2.884c-5.982,0 -10.654,2.11 -14.019,6.329c-3.364,4.219 -5.047,10.387 -5.047,18.504c0,8.118 1.656,14.286 4.967,18.505c3.311,4.219 7.904,6.328 13.778,6.328Z" style="fill:#263238;fill-rule:nonzero;"/><path d="M517.035,172.48l0,-80.106l19.706,0l1.282,24.032l-2.724,-2.563c1.282,-5.234 3.311,-9.533 6.088,-12.898c2.777,-3.364 6.169,-5.901 10.174,-7.61c4.005,-1.709 8.411,-2.563 13.217,-2.563c5.554,-0 10.494,1.068 14.82,3.204c4.326,2.136 7.744,5.367 10.254,9.693c2.51,4.326 3.765,9.746 3.765,16.262l-0,52.549l-21.949,0l-0,-46.301c-0,-6.836 -1.336,-11.562 -4.006,-14.179c-2.67,-2.617 -6.141,-3.925 -10.414,-3.925c-2.99,-0 -5.901,0.721 -8.731,2.163c-2.831,1.442 -5.127,3.765 -6.889,6.969c-1.763,3.204 -2.644,7.477 -2.644,12.817l0,42.456l-21.949,0Z" style="fill:#263238;fill-rule:nonzero;"/><path d="M461.441,174.082c-8.437,0 -15.78,-1.655 -22.029,-4.966c-6.248,-3.311 -11.081,-8.064 -14.499,-14.259c-3.418,-6.195 -5.127,-13.672 -5.127,-22.43c0,-8.758 1.709,-16.235 5.127,-22.43c3.418,-6.194 8.198,-10.947 14.339,-14.258c6.142,-3.311 13.164,-4.967 21.068,-4.967c8.117,-0 15.007,1.629 20.667,4.886c5.661,3.258 9.987,7.691 12.978,13.298c2.99,5.608 4.486,11.989 4.486,19.145c-0,2.137 -0.054,4.166 -0.161,6.089c-0.107,1.922 -0.267,3.631 -0.48,5.126l-63.925,0l-0,-15.22l54.312,0l-10.574,3.845c-0,-6.729 -1.522,-11.909 -4.566,-15.54c-3.044,-3.632 -7.343,-5.448 -12.897,-5.448c-4.059,0 -7.557,0.962 -10.494,2.884c-2.937,1.923 -5.154,4.78 -6.649,8.572c-1.495,3.791 -2.243,8.571 -2.243,14.339c0,5.66 0.828,10.333 2.483,14.018c1.656,3.685 4.006,6.435 7.05,8.251c3.044,1.816 6.702,2.724 10.974,2.724c4.7,-0 8.491,-0.908 11.375,-2.724c2.884,-1.816 5.127,-4.326 6.729,-7.53l17.463,6.729c-1.709,4.166 -4.299,7.744 -7.77,10.734c-3.471,2.991 -7.583,5.261 -12.336,6.809c-4.753,1.549 -9.853,2.323 -15.301,2.323Z" style="fill:#263238;fill-rule:nonzero;"/><path d="M358.265,172.48l-0,-80.106l19.065,0l1.442,15.701c2.136,-5.554 5.26,-9.826 9.372,-12.817c4.112,-2.991 9.266,-4.486 15.461,-4.486c1.816,-0 3.471,0.16 4.966,0.481c1.496,0.32 2.724,0.747 3.685,1.281l-2.563,18.425c-1.068,-0.427 -2.377,-0.748 -3.925,-0.962c-1.549,-0.213 -3.552,-0.32 -6.008,-0.32c-3.205,0 -6.302,0.774 -9.293,2.323c-2.99,1.549 -5.447,3.899 -7.369,7.049c-1.923,3.151 -2.884,7.13 -2.884,11.936l-0,41.495l-21.949,0Z" style="fill:#263238;fill-rule:nonzero;"/><path d="M257.812,206.125l-0,-113.751l19.706,0l1.442,25.474l-2.724,-2.884c0.961,-4.7 2.75,-8.865 5.367,-12.497c2.617,-3.631 5.955,-6.488 10.013,-8.571c4.059,-2.083 8.598,-3.124 13.618,-3.124c6.516,-0 12.337,1.656 17.464,4.967c5.126,3.311 9.158,8.037 12.096,14.178c2.937,6.142 4.405,13.592 4.405,22.35c0,8.758 -1.495,16.262 -4.486,22.51c-2.99,6.248 -7.076,11.028 -12.256,14.339c-5.18,3.311 -11.081,4.966 -17.703,4.966c-7.05,0 -12.897,-1.976 -17.544,-5.927c-4.646,-3.952 -7.823,-8.919 -9.532,-14.9l2.083,-3.365l-0,56.235l-21.949,-0Zm40.533,-48.865c5.875,0 10.494,-2.109 13.859,-6.328c3.364,-4.219 5.046,-10.387 5.046,-18.505c0,-8.117 -1.629,-14.285 -4.886,-18.504c-3.258,-4.219 -7.824,-6.329 -13.698,-6.329c-3.739,0 -7.023,0.988 -9.853,2.964c-2.831,1.976 -5.047,4.807 -6.649,8.491c-1.602,3.685 -2.403,8.145 -2.403,13.378c-0,5.02 0.747,9.426 2.243,13.218c1.495,3.791 3.658,6.675 6.488,8.651c2.831,1.976 6.115,2.964 9.853,2.964Z" style="fill:#263238;fill-rule:nonzero;"/><path d="M106.411,172.48l-0,-80.106l19.706,0l0.801,14.419c2.67,-5.34 6.328,-9.346 10.975,-12.016c4.646,-2.67 9.799,-4.005 15.46,-4.005c5.768,-0 10.975,1.335 15.621,4.005c4.646,2.67 8.144,6.622 10.494,11.856c1.709,-3.525 4.005,-6.462 6.889,-8.812c2.884,-2.349 6.088,-4.112 9.613,-5.287c3.524,-1.175 7.102,-1.762 10.734,-1.762c5.233,-0 10.013,1.068 14.339,3.204c4.326,2.136 7.77,5.341 10.333,9.613c2.564,4.272 3.846,9.72 3.846,16.342l-0,52.549l-21.95,0l0,-48.224c0,-5.874 -1.281,-10.04 -3.845,-12.496c-2.563,-2.457 -5.874,-3.685 -9.933,-3.685c-3.204,-0 -6.168,0.801 -8.892,2.403c-2.723,1.602 -4.859,3.979 -6.408,7.13c-1.549,3.15 -2.323,7.076 -2.323,11.775l-0,43.097l-21.949,0l-0,-48.224c-0,-5.874 -1.309,-10.04 -3.925,-12.496c-2.617,-2.457 -5.955,-3.685 -10.014,-3.685c-2.777,-0 -5.527,0.748 -8.251,2.243c-2.723,1.495 -4.966,3.845 -6.729,7.049c-1.762,3.204 -2.643,7.423 -2.643,12.657l-0,42.456l-21.949,0Z" style="fill:#263238;fill-rule:nonzero;"/><path d="M72.286,80.839c-4.593,-0 -8.011,-0.988 -10.254,-2.964c-2.243,-1.976 -3.364,-4.887 -3.364,-8.732c-0,-3.952 1.121,-6.916 3.364,-8.891c2.243,-1.976 5.661,-2.964 10.254,-2.964c4.592,-0 8.01,0.988 10.253,2.964c2.243,1.975 3.365,4.939 3.365,8.891c-0,3.845 -1.122,6.756 -3.365,8.732c-2.243,1.976 -5.661,2.964 -10.253,2.964Zm10.894,11.535l0,80.106l-21.949,0l-0,-80.106l21.949,0Z" style="fill:#263238;fill-rule:nonzero;"/></g><g id="soluzioni-as-a-service" serif:id="soluzioni as a service"><path d="M368.818,182.789c2.21,-0 4.114,0.45 5.715,1.351c1.6,0.901 2.933,2.227 4,3.977l-2.553,1.979c-0.939,-1.624 -2,-2.772 -3.181,-3.444c-1.181,-0.672 -2.61,-1.009 -4.286,-1.009c-1.346,0 -2.457,0.191 -3.334,0.571c-0.876,0.381 -1.517,0.882 -1.923,1.504c-0.407,0.621 -0.61,1.325 -0.61,2.112c-0,0.888 0.279,1.668 0.838,2.341c0.559,0.672 1.676,1.198 3.353,1.579l5.448,1.218c2.413,0.533 4.095,1.338 5.048,2.417c0.952,1.078 1.428,2.416 1.428,4.015c0,1.421 -0.4,2.683 -1.2,3.787c-0.8,1.104 -1.924,1.96 -3.371,2.569c-1.448,0.609 -3.15,0.913 -5.105,0.913c-1.829,0 -3.436,-0.247 -4.82,-0.742c-1.384,-0.495 -2.571,-1.161 -3.562,-1.998c-0.991,-0.837 -1.803,-1.776 -2.438,-2.816l2.667,-2.17c0.482,0.964 1.104,1.814 1.866,2.55c0.762,0.736 1.683,1.307 2.762,1.713c1.08,0.406 2.318,0.609 3.715,0.609c1.295,-0 2.419,-0.159 3.372,-0.476c0.952,-0.317 1.682,-0.786 2.19,-1.408c0.508,-0.622 0.762,-1.377 0.762,-2.265c0,-0.812 -0.266,-1.541 -0.8,-2.188c-0.533,-0.647 -1.536,-1.135 -3.009,-1.465l-5.906,-1.332c-1.549,-0.356 -2.8,-0.844 -3.752,-1.466c-0.953,-0.621 -1.639,-1.357 -2.058,-2.207c-0.419,-0.85 -0.628,-1.77 -0.628,-2.759c-0,-1.345 0.374,-2.582 1.124,-3.711c0.749,-1.129 1.828,-2.036 3.238,-2.721c1.41,-0.685 3.08,-1.028 5.01,-1.028Z" style="fill:#263238;fill-rule:nonzero;"/><path d="M391.448,188.878c1.803,0 3.397,0.394 4.781,1.18c1.385,0.787 2.47,1.922 3.258,3.407c0.787,1.484 1.181,3.254 1.181,5.309c-0,2.055 -0.394,3.825 -1.181,5.309c-0.788,1.484 -1.873,2.62 -3.258,3.406c-1.384,0.787 -2.978,1.18 -4.781,1.18c-1.778,0 -3.365,-0.393 -4.762,-1.18c-1.397,-0.786 -2.489,-1.922 -3.277,-3.406c-0.787,-1.484 -1.181,-3.254 -1.181,-5.309c0,-2.055 0.394,-3.825 1.181,-5.309c0.788,-1.485 1.88,-2.62 3.277,-3.407c1.397,-0.786 2.984,-1.18 4.762,-1.18Zm0,2.627c-1.295,-0 -2.4,0.291 -3.314,0.875c-0.915,0.583 -1.62,1.414 -2.115,2.493c-0.495,1.078 -0.743,2.378 -0.743,3.901c0,1.497 0.248,2.791 0.743,3.882c0.495,1.091 1.2,1.928 2.115,2.512c0.914,0.583 2.019,0.875 3.314,0.875c1.295,0 2.4,-0.292 3.315,-0.875c0.914,-0.584 1.619,-1.421 2.114,-2.512c0.495,-1.091 0.743,-2.385 0.743,-3.882c0,-1.523 -0.248,-2.823 -0.743,-3.901c-0.495,-1.079 -1.2,-1.91 -2.114,-2.493c-0.915,-0.584 -2.02,-0.875 -3.315,-0.875Z" style="fill:#263238;fill-rule:nonzero;"/><path d="M408.287,180.505l0,22.95c0,0.964 0.178,1.63 0.534,1.998c0.355,0.368 0.927,0.552 1.714,0.552c0.508,0 0.927,-0.038 1.258,-0.114c0.33,-0.076 0.774,-0.216 1.333,-0.419l-0.495,2.664c-0.407,0.178 -0.851,0.311 -1.334,0.4c-0.482,0.089 -0.978,0.133 -1.486,0.133c-1.549,0 -2.698,-0.418 -3.447,-1.256c-0.75,-0.837 -1.124,-2.118 -1.124,-3.844l-0,-23.064l3.047,0Z" style="fill:#263238;fill-rule:nonzero;"/><path d="M422.917,208.669c-1.219,0 -2.368,-0.228 -3.448,-0.685c-1.079,-0.456 -1.955,-1.199 -2.628,-2.226c-0.674,-1.028 -1.01,-2.366 -1.01,-4.016l-0,-12.483l3.048,0l-0,11.684c-0,1.929 0.419,3.254 1.257,3.977c0.838,0.724 2.019,1.085 3.543,1.085c0.711,0 1.41,-0.12 2.096,-0.361c0.685,-0.241 1.301,-0.622 1.847,-1.142c0.546,-0.52 0.978,-1.186 1.296,-1.998c0.317,-0.812 0.476,-1.776 0.476,-2.893l-0,-10.352l3.048,0l-0,19.03l-2.667,-0l-0.191,-2.893c-0.66,1.142 -1.555,1.973 -2.686,2.493c-1.13,0.52 -2.457,0.78 -3.981,0.78Z" style="fill:#263238;fill-rule:nonzero;"/><path d="M437.128,208.289l-0,-2.322l9.981,-11.684l2.401,-2.474l-3.391,0.076l-8.877,0l0,-2.626l15.658,0l0,2.322l-9.981,11.684l-2.362,2.474l3.695,-0.076l8.953,-0l0,2.626l-16.077,-0Z" style="fill:#263238;fill-rule:nonzero;"/><path d="M459.339,185.605c-0.686,0 -1.238,-0.209 -1.657,-0.628c-0.419,-0.418 -0.629,-0.97 -0.629,-1.655c0,-0.685 0.21,-1.237 0.629,-1.656c0.419,-0.418 0.971,-0.628 1.657,-0.628c0.686,0 1.238,0.21 1.657,0.628c0.419,0.419 0.629,0.971 0.629,1.656c-0,0.685 -0.21,1.237 -0.629,1.655c-0.419,0.419 -0.971,0.628 -1.657,0.628Zm1.524,3.654l-0,19.03l-3.048,-0l0,-19.03l3.048,0Z" style="fill:#263238;fill-rule:nonzero;"/><path d="M474.807,188.878c1.803,0 3.397,0.394 4.781,1.18c1.384,0.787 2.47,1.922 3.257,3.407c0.788,1.484 1.182,3.254 1.182,5.309c-0,2.055 -0.394,3.825 -1.182,5.309c-0.787,1.484 -1.873,2.62 -3.257,3.406c-1.384,0.787 -2.978,1.18 -4.781,1.18c-1.778,0 -3.366,-0.393 -4.762,-1.18c-1.397,-0.786 -2.49,-1.922 -3.277,-3.406c-0.787,-1.484 -1.181,-3.254 -1.181,-5.309c0,-2.055 0.394,-3.825 1.181,-5.309c0.787,-1.485 1.88,-2.62 3.277,-3.407c1.396,-0.786 2.984,-1.18 4.762,-1.18Zm-0,2.627c-1.296,-0 -2.4,0.291 -3.315,0.875c-0.914,0.583 -1.619,1.414 -2.114,2.493c-0.495,1.078 -0.743,2.378 -0.743,3.901c-0,1.497 0.248,2.791 0.743,3.882c0.495,1.091 1.2,1.928 2.114,2.512c0.915,0.583 2.019,0.875 3.315,0.875c1.295,0 2.4,-0.292 3.314,-0.875c0.915,-0.584 1.619,-1.421 2.115,-2.512c0.495,-1.091 0.743,-2.385 0.743,-3.882c-0,-1.523 -0.248,-2.823 -0.743,-3.901c-0.496,-1.079 -1.2,-1.91 -2.115,-2.493c-0.914,-0.584 -2.019,-0.875 -3.314,-0.875Z" style="fill:#263238;fill-rule:nonzero;"/><path d="M488.751,208.289l-0,-19.03l2.667,0l0.266,4.263l-0.495,-0.419c0.406,-1.015 0.952,-1.833 1.638,-2.455c0.686,-0.621 1.48,-1.072 2.381,-1.351c0.902,-0.279 1.835,-0.419 2.801,-0.419c1.371,0 2.616,0.261 3.733,0.781c1.118,0.52 2.013,1.313 2.686,2.378c0.673,1.066 1.01,2.423 1.01,4.073l-0,12.179l-3.048,-0l-0,-11.114c-0,-2.106 -0.451,-3.571 -1.353,-4.395c-0.901,-0.825 -2.013,-1.237 -3.333,-1.237c-0.915,-0 -1.829,0.215 -2.743,0.647c-0.915,0.431 -1.67,1.129 -2.267,2.093c-0.597,0.964 -0.895,2.258 -0.895,3.882l-0,10.124l-3.048,-0Z" style="fill:#263238;fill-rule:nonzero;"/><path d="M512.829,185.605c-0.686,0 -1.239,-0.209 -1.658,-0.628c-0.419,-0.418 -0.628,-0.97 -0.628,-1.655c-0,-0.685 0.209,-1.237 0.628,-1.656c0.419,-0.418 0.972,-0.628 1.658,-0.628c0.685,0 1.238,0.21 1.657,0.628c0.419,0.419 0.629,0.971 0.629,1.656c-0,0.685 -0.21,1.237 -0.629,1.655c-0.419,0.419 -0.972,0.628 -1.657,0.628Zm1.524,3.654l-0,19.03l-3.048,-0l-0,-19.03l3.048,0Z" style="fill:#263238;fill-rule:nonzero;"/><path d="M543.498,195.996c-0,-1.421 -0.381,-2.519 -1.143,-3.293c-0.762,-0.773 -1.842,-1.16 -3.239,-1.16c-1.32,-0 -2.438,0.285 -3.352,0.856c-0.915,0.571 -1.588,1.491 -2.019,2.759l-2.477,-1.522c0.508,-1.421 1.448,-2.569 2.819,-3.444c1.372,-0.876 3.074,-1.314 5.106,-1.314c1.371,0 2.616,0.235 3.733,0.705c1.118,0.469 2,1.179 2.648,2.131c0.648,0.951 0.971,2.176 0.971,3.673l0,9.21c0,0.913 0.483,1.37 1.448,1.37c0.483,0 0.953,-0.063 1.41,-0.19l-0.153,2.398c-0.508,0.253 -1.168,0.38 -1.981,0.38c-0.736,0 -1.397,-0.139 -1.981,-0.419c-0.584,-0.279 -1.041,-0.704 -1.371,-1.275c-0.33,-0.57 -0.496,-1.287 -0.496,-2.15l0,-0.38l0.762,0.114c-0.304,0.989 -0.825,1.795 -1.562,2.416c-0.736,0.622 -1.562,1.079 -2.476,1.371c-0.914,0.291 -1.816,0.437 -2.705,0.437c-1.118,0 -2.159,-0.19 -3.124,-0.571c-0.965,-0.38 -1.733,-0.957 -2.305,-1.731c-0.571,-0.774 -0.857,-1.732 -0.857,-2.874c-0,-1.421 0.476,-2.594 1.429,-3.52c0.952,-0.926 2.279,-1.554 3.981,-1.884l7.543,-1.485l0,2.512l-6.134,1.256c-1.244,0.254 -2.171,0.609 -2.781,1.066c-0.609,0.457 -0.914,1.091 -0.914,1.903c-0,0.787 0.311,1.427 0.933,1.922c0.623,0.495 1.505,0.742 2.648,0.742c0.737,0 1.441,-0.095 2.115,-0.285c0.673,-0.191 1.276,-0.482 1.809,-0.876c0.534,-0.393 0.953,-0.888 1.257,-1.484c0.305,-0.596 0.458,-1.3 0.458,-2.112l-0,-5.252Z" style="fill:#263238;fill-rule:nonzero;"/><path d="M559.766,208.669c-1.855,0 -3.563,-0.393 -5.125,-1.18c-1.562,-0.786 -2.762,-1.903 -3.6,-3.349l2.591,-1.865c0.559,1.167 1.378,2.081 2.457,2.741c1.08,0.659 2.381,0.989 3.905,0.989c1.346,0 2.4,-0.26 3.162,-0.78c0.762,-0.52 1.143,-1.199 1.143,-2.036c0,-0.533 -0.171,-1.022 -0.514,-1.466c-0.343,-0.444 -0.997,-0.767 -1.962,-0.97l-4.572,-0.952c-1.854,-0.38 -3.181,-1.014 -3.981,-1.902c-0.8,-0.889 -1.2,-1.992 -1.2,-3.312c-0,-1.04 0.298,-1.991 0.895,-2.854c0.597,-0.863 1.448,-1.554 2.553,-2.074c1.104,-0.52 2.406,-0.781 3.905,-0.781c1.879,0 3.467,0.368 4.762,1.104c1.295,0.736 2.26,1.776 2.895,3.121l-2.552,1.675c-0.432,-1.117 -1.13,-1.935 -2.096,-2.455c-0.965,-0.52 -1.968,-0.78 -3.009,-0.78c-0.915,-0 -1.696,0.126 -2.343,0.38c-0.648,0.254 -1.143,0.603 -1.486,1.047c-0.343,0.444 -0.515,0.945 -0.515,1.503c0,0.558 0.191,1.072 0.572,1.542c0.381,0.469 1.092,0.805 2.133,1.008l4.763,0.99c1.778,0.355 3.022,0.938 3.733,1.75c0.711,0.812 1.067,1.802 1.067,2.969c0,1.193 -0.317,2.239 -0.952,3.14c-0.635,0.901 -1.524,1.592 -2.667,2.074c-1.143,0.482 -2.464,0.723 -3.962,0.723Z" style="fill:#263238;fill-rule:nonzero;"/><path d="M595.044,195.996c0,-1.421 -0.381,-2.519 -1.143,-3.293c-0.762,-0.773 -1.841,-1.16 -3.238,-1.16c-1.321,-0 -2.438,0.285 -3.353,0.856c-0.914,0.571 -1.587,1.491 -2.019,2.759l-2.476,-1.522c0.508,-1.421 1.448,-2.569 2.819,-3.444c1.372,-0.876 3.073,-1.314 5.105,-1.314c1.372,0 2.616,0.235 3.734,0.705c1.117,0.469 2,1.179 2.648,2.131c0.647,0.951 0.971,2.176 0.971,3.673l0,9.21c0,0.913 0.483,1.37 1.448,1.37c0.483,0 0.952,-0.063 1.41,-0.19l-0.153,2.398c-0.508,0.253 -1.168,0.38 -1.981,0.38c-0.736,0 -1.397,-0.139 -1.981,-0.419c-0.584,-0.279 -1.041,-0.704 -1.372,-1.275c-0.33,-0.57 -0.495,-1.287 -0.495,-2.15l0,-0.38l0.762,0.114c-0.305,0.989 -0.825,1.795 -1.562,2.416c-0.736,0.622 -1.562,1.079 -2.476,1.371c-0.915,0.291 -1.816,0.437 -2.705,0.437c-1.118,0 -2.159,-0.19 -3.124,-0.571c-0.965,-0.38 -1.734,-0.957 -2.305,-1.731c-0.572,-0.774 -0.857,-1.732 -0.857,-2.874c-0,-1.421 0.476,-2.594 1.428,-3.52c0.953,-0.926 2.28,-1.554 3.982,-1.884l7.543,-1.485l-0,2.512l-6.134,1.256c-1.244,0.254 -2.171,0.609 -2.781,1.066c-0.61,0.457 -0.914,1.091 -0.914,1.903c-0,0.787 0.311,1.427 0.933,1.922c0.622,0.495 1.505,0.742 2.648,0.742c0.736,0 1.441,-0.095 2.114,-0.285c0.673,-0.191 1.277,-0.482 1.81,-0.876c0.533,-0.393 0.952,-0.888 1.257,-1.484c0.305,-0.596 0.457,-1.3 0.457,-2.112l0,-5.252Z" style="fill:#263238;fill-rule:nonzero;"/><path d="M624.189,182.789c2.21,-0 4.115,0.45 5.715,1.351c1.6,0.901 2.934,2.227 4,3.977l-2.552,1.979c-0.94,-1.624 -2,-2.772 -3.181,-3.444c-1.181,-0.672 -2.61,-1.009 -4.286,-1.009c-1.347,0 -2.458,0.191 -3.334,0.571c-0.876,0.381 -1.518,0.882 -1.924,1.504c-0.406,0.621 -0.609,1.325 -0.609,2.112c-0,0.888 0.279,1.668 0.838,2.341c0.558,0.672 1.676,1.198 3.352,1.579l5.448,1.218c2.413,0.533 4.096,1.338 5.048,2.417c0.953,1.078 1.429,2.416 1.429,4.015c0,1.421 -0.4,2.683 -1.2,3.787c-0.8,1.104 -1.924,1.96 -3.372,2.569c-1.447,0.609 -3.149,0.913 -5.105,0.913c-1.829,0 -3.435,-0.247 -4.819,-0.742c-1.385,-0.495 -2.572,-1.161 -3.562,-1.998c-0.991,-0.837 -1.804,-1.776 -2.439,-2.816l2.667,-2.17c0.483,0.964 1.105,1.814 1.867,2.55c0.762,0.736 1.683,1.307 2.762,1.713c1.079,0.406 2.318,0.609 3.715,0.609c1.295,-0 2.419,-0.159 3.371,-0.476c0.953,-0.317 1.683,-0.786 2.191,-1.408c0.508,-0.622 0.762,-1.377 0.762,-2.265c-0,-0.812 -0.267,-1.541 -0.8,-2.188c-0.534,-0.647 -1.537,-1.135 -3.01,-1.465l-5.905,-1.332c-1.549,-0.356 -2.8,-0.844 -3.753,-1.466c-0.952,-0.621 -1.638,-1.357 -2.057,-2.207c-0.419,-0.85 -0.629,-1.77 -0.629,-2.759c0,-1.345 0.375,-2.582 1.124,-3.711c0.749,-1.129 1.829,-2.036 3.239,-2.721c1.409,-0.685 3.079,-1.028 5.009,-1.028Z" style="fill:#263238;fill-rule:nonzero;"/><path d="M646.896,208.669c-1.803,0 -3.41,-0.393 -4.82,-1.18c-1.409,-0.786 -2.508,-1.922 -3.295,-3.406c-0.787,-1.484 -1.181,-3.254 -1.181,-5.309c-0,-2.055 0.394,-3.825 1.181,-5.309c0.787,-1.485 1.867,-2.62 3.238,-3.407c1.372,-0.786 2.934,-1.18 4.686,-1.18c1.778,0 3.296,0.381 4.553,1.142c1.257,0.761 2.216,1.795 2.877,3.102c0.66,1.307 0.99,2.772 0.99,4.396c0,0.431 -0.013,0.825 -0.038,1.18c-0.025,0.355 -0.064,0.672 -0.114,0.951l-15.392,0l0,-2.702l14.058,0l-1.562,0.304c0,-1.826 -0.501,-3.235 -1.505,-4.224c-1.003,-0.99 -2.317,-1.484 -3.943,-1.484c-1.244,-0 -2.317,0.285 -3.219,0.856c-0.902,0.571 -1.6,1.395 -2.095,2.474c-0.496,1.078 -0.743,2.378 -0.743,3.901c-0,1.497 0.254,2.791 0.762,3.882c0.508,1.091 1.225,1.922 2.152,2.493c0.927,0.571 2.038,0.856 3.334,0.856c1.397,0 2.533,-0.266 3.409,-0.799c0.877,-0.533 1.582,-1.256 2.115,-2.169l2.4,1.408c-0.482,0.862 -1.098,1.611 -1.848,2.245c-0.749,0.635 -1.625,1.123 -2.628,1.465c-1.004,0.343 -2.128,0.514 -3.372,0.514Z" style="fill:#263238;fill-rule:nonzero;"/><path d="M659.887,208.289l0,-19.03l2.477,0l0.419,3.121c0.533,-1.167 1.314,-2.043 2.343,-2.626c1.028,-0.584 2.279,-0.876 3.752,-0.876c0.331,0 0.693,0.026 1.086,0.077c0.394,0.05 0.73,0.152 1.01,0.304l-0.533,2.778c-0.28,-0.101 -0.585,-0.177 -0.915,-0.228c-0.33,-0.051 -0.8,-0.076 -1.409,-0.076c-0.788,-0 -1.582,0.228 -2.382,0.685c-0.8,0.457 -1.466,1.148 -2,2.074c-0.533,0.926 -0.8,2.1 -0.8,3.521l0,10.276l-3.048,-0Z" style="fill:#263238;fill-rule:nonzero;"/><path d="M687.013,189.259l3.2,0l-7.924,19.03l-3.048,-0l-7.924,-19.03l3.467,0l6.019,15.947l6.21,-15.947Z" style="fill:#263238;fill-rule:nonzero;"/><path d="M694.709,185.605c-0.686,0 -1.238,-0.209 -1.657,-0.628c-0.419,-0.418 -0.629,-0.97 -0.629,-1.655c0,-0.685 0.21,-1.237 0.629,-1.656c0.419,-0.418 0.971,-0.628 1.657,-0.628c0.686,0 1.238,0.21 1.657,0.628c0.419,0.419 0.629,0.971 0.629,1.656c-0,0.685 -0.21,1.237 -0.629,1.655c-0.419,0.419 -0.971,0.628 -1.657,0.628Zm1.524,3.654l-0,19.03l-3.048,-0l0,-19.03l3.048,0Z" style="fill:#263238;fill-rule:nonzero;"/><path d="M710.177,188.878c1.321,0 2.483,0.203 3.486,0.609c1.003,0.406 1.873,0.99 2.61,1.751c0.736,0.761 1.333,1.662 1.79,2.702l-2.895,1.37c-0.407,-1.217 -1.023,-2.15 -1.848,-2.797c-0.826,-0.647 -1.899,-0.97 -3.219,-0.97c-1.27,-0 -2.362,0.285 -3.277,0.856c-0.914,0.571 -1.613,1.395 -2.095,2.474c-0.483,1.078 -0.724,2.378 -0.724,3.901c-0,1.497 0.241,2.791 0.724,3.882c0.482,1.091 1.181,1.922 2.095,2.493c0.915,0.571 2.007,0.856 3.277,0.856c0.99,0 1.847,-0.152 2.571,-0.457c0.724,-0.304 1.321,-0.748 1.791,-1.332c0.47,-0.583 0.794,-1.294 0.971,-2.131l2.82,0.99c-0.432,1.167 -1.023,2.169 -1.772,3.006c-0.749,0.838 -1.651,1.478 -2.705,1.922c-1.054,0.444 -2.254,0.666 -3.6,0.666c-1.778,0 -3.366,-0.393 -4.762,-1.18c-1.397,-0.786 -2.49,-1.922 -3.277,-3.406c-0.787,-1.484 -1.181,-3.254 -1.181,-5.309c0,-2.055 0.394,-3.825 1.181,-5.309c0.787,-1.485 1.88,-2.62 3.277,-3.407c1.396,-0.786 2.984,-1.18 4.762,-1.18Z" style="fill:#263238;fill-rule:nonzero;"/><path d="M730.559,208.669c-1.803,0 -3.409,-0.393 -4.819,-1.18c-1.41,-0.786 -2.508,-1.922 -3.296,-3.406c-0.787,-1.484 -1.181,-3.254 -1.181,-5.309c0,-2.055 0.394,-3.825 1.181,-5.309c0.788,-1.485 1.867,-2.62 3.239,-3.407c1.371,-0.786 2.933,-1.18 4.686,-1.18c1.778,0 3.295,0.381 4.553,1.142c1.257,0.761 2.216,1.795 2.876,3.102c0.66,1.307 0.991,2.772 0.991,4.396c-0,0.431 -0.013,0.825 -0.039,1.18c-0.025,0.355 -0.063,0.672 -0.114,0.951l-15.392,0l0,-2.702l14.059,0l-1.562,0.304c-0,-1.826 -0.502,-3.235 -1.505,-4.224c-1.003,-0.99 -2.318,-1.484 -3.943,-1.484c-1.245,-0 -2.318,0.285 -3.22,0.856c-0.901,0.571 -1.6,1.395 -2.095,2.474c-0.495,1.078 -0.743,2.378 -0.743,3.901c0,1.497 0.254,2.791 0.762,3.882c0.508,1.091 1.225,1.922 2.153,2.493c0.927,0.571 2.038,0.856 3.333,0.856c1.397,0 2.534,-0.266 3.41,-0.799c0.876,-0.533 1.581,-1.256 2.114,-2.169l2.401,1.408c-0.483,0.862 -1.099,1.611 -1.848,2.245c-0.75,0.635 -1.626,1.123 -2.629,1.465c-1.003,0.343 -2.127,0.514 -3.372,0.514Z" style="fill:#263238;fill-rule:nonzero;"/></g></g></svg>